<svg width="1280" height="5000" xmlns="http://www.w3.org/2000/svg" fill="none"><path id="svg_1" fill="#FFE550" d="M0 166C462.5-120.5 1020 478.5 1280 .5V857H0V166z"/><path d="M527.998 1088.033c-4 0-5.577.078-4 16 2.01 20.297 12.622 35.496 32 60.001 24.813 31.376 34.988 45.486 52.001 56.001 7.609 4.703 8.215 9.838 16 8 8.706-2.055 12-4 20.001-8 8-4 16-4 24-8 16-8 32.16-15.696 40.001-20 20.446-11.224 40.265-23.511 48.001-28 12.474-7.24 12-12 12-16v-4.001l-8-8" id="svg_2" fill="#FFE550"/><path d="M720.001 1120.034h-36c-16 0-24.068 3.613-48.001 8-20.062 3.677-24 8-24 8v4" id="svg_3" fill="#FFE550"/><path d="M64.011 904.03s-2.508 9.11 28.463 18.735c6.925 2.152 49.21 30.554 135.196 65.574 98.976 40.31 141.256 56.16 213.468 65.574 28.324 3.692 57.686.758 85.387 9.367 15.485 4.813 21.347 9.368 21.347 9.368 7.115 9.368 7.306 16.583 14.23 18.735 15.486 4.813 145.017-108.593 42.694 37.471 35.06 29.21 72.138 63.587 149.428 131.148 93.728 81.93 136.09 119.675 213.468 177.986 36.009 27.135 71.156 65.574 120.965 121.78s74.375 88.564 135.196 159.25c37.72 43.838 89.96 126.545 149.428 177.986 47.944 41.473 64.04 56.206 92.502 74.942l7.116 18.735 7.116 9.368" id="svg_4" fill="#FFE550"/><path transform="rotate(-3.64 678.733 1188.95)" fill-opacity="0" stroke="null" d="M-18.823 747.16c35.772 18.8 159.556 86.241 286.177 169.196 291.847 191.202 543.578 410.054 715.443 507.59 224.084 127.172 393.493 206.796 393.493 206.796" id="svg_5" fill="#ffe550"/><path id="svg_6" fill="#FFE550" d="M-248.016 780.028h1756.031v928.016H-248.016z"/><path id="svg_7" fill="#FFE550" d="M-512.02 1490.048h2748.048v1176.021H-512.02z"/><path id="svg_8" opacity="NaN" fill="#FFE550" d="M-72.013 2468.087h2392.042v2636.046H-72.013z"/></svg>