<svg width="1945" height="792" xmlns="http://www.w3.org/2000/svg" fill="none"><g id="svg_5"><g id="svg_9"><path d="M266.665 88.83c462.5-286.5 1016 312.5 1280-165.5v856.5h-1280v-691z" fill="#FFE550" id="svg_1"/><path fill="#FFE550" stroke="null" opacity="undefined" d="M263.336 780.254c-196.708-16-258.67-164.474-258.67-370C4.667 204.73 309.963-8.415 606.67 10.252c296.708 18.667 566.001 166.476 566.001 372.001 0 205.525-712.628 414.001-909.336 398.001z" id="svg_2"/><path fill="#fff" id="svg_4" stroke="null" d="M1312.061-75.05h418.001V88.952h-418.001z"/><path fill="#ffe550" opacity="undefined" d="M1536.618 780.839c-258.671 15.233-381.563-174.331-381.563-367.89 0-193.558 176.596-357.36 341.008-350.34 164.413 7.019 395.01 176.783 395.01 370.341 0 193.559-95.784 332.655-354.455 347.889z" id="svg_8" stroke="null"/></g><path fill="#fff" stroke="#000" opacity="undefined" d="M1473.188 108.627c-384.01 20.14-441.081-24.702-450.36-112.057-9.28-87.355 177.23-178.723 416.77-204.167 239.539-25.445 430.777-62.165 450.36 112.057 19.583 174.223-32.76 184.027-416.77 204.167z" id="svg_3" stroke-width="0"/><path fill="#ffe550" stroke="#000" stroke-width="0" opacity="undefined" d="M1657.814 210.393c-163.47-52-70.667-16.044-202.667-58.667-132-42.622 53.864-34 147.334-56.667 93.47-22.666 107.333 38.045 129.333 58.667 22 20.623 89.47 108.667-74 56.667z" id="svg_6"/><path fill="#ffe550" stroke="#000" stroke-width="0" opacity="undefined" d="M1594.581 668.518c-241.477-206 16.346-336.772-59.259-420.333-75.605-83.562 62.283-165.667 164.593-179 102.31-13.334 218.527 114.771 236.593 209.666 18.065 94.895-100.45 595.668-341.927 389.667z" id="svg_10"/></g></svg>