<svg aria-hidden="true" style="width:0;height:0;position:absolute;overflow:hidden" xmlns="http://www.w3.org/2000/svg"><defs><symbol id="logo-footer" viewBox="0 0 43 32"><path fill="#ffe553" style="fill:var(--color1,#ffe553)" d="M14.732 8.449c1.446-2.818 5.48-2.818 6.926 0a3.889 3.889 0 0 0 2.849 2.06c3.119.493 4.381 4.322 2.144 6.55a3.857 3.857 0 0 0-1.088 3.34c.494 3.117-2.785 5.468-5.601 4.043a3.931 3.931 0 0 0-3.533 0c-2.816 1.424-6.095-.927-5.601-4.043a3.863 3.863 0 0 0-1.088-3.34c-2.238-2.227-.975-6.057 2.144-6.55a3.89 3.89 0 0 0 2.849-2.06z"/><path fill="#2c2c2c" style="fill:var(--color2,#2c2c2c)" d="m2.709 20.651-.021.005c.003.074-.001.373-.012.898-.003.523-.004.866-.003 1.03 0 .157-.004.284-.01.383l.001.335c-.002.12-.008.218-.02.296l-.019.206c-.014.13-.042.2-.085.21-.092.022-.237-.049-.433-.211-.198-.17-.312-.318-.343-.445s-.038-1.058-.022-2.792c.022-1.736-.024-2.877-.139-3.425a.418.418 0 0 1 .014-.272c.036-.165.22-.32.554-.466.34-.147.848-.3 1.524-.459.683-.161 1.224-.251 1.625-.27.408-.021.627.032.657.159.02.085-.026.159-.138.223s-.212.117-.3.16l-.35.138c-.146.049-.281.096-.406.14-.126.037-.29.091-.491.16-.194.068-.374.133-.539.194-.167.054-.393.133-.676.237s-.467.169-.55.196c.012.02.023.05.033.093.079.332.122 1.127.129 2.386.446-.082.916-.204 1.411-.365.502-.163.81-.258.923-.284.27-.064.419-.039.446.074.052.219-.213.475-.797.769a8.769 8.769 0 0 1-1.963.696zM9.672 18.701a1.999 1.999 0 0 0-.279-.651c-.13-.201-.282-.333-.455-.397-.459.25-.792.727-.999 1.432-.202.696-.239 1.317-.109 1.861s.345.851.647.922c.488-.219.84-.667 1.054-1.344.22-.686.267-1.293.14-1.823zm-2.782.755c.118-.61.334-1.138.648-1.584.32-.456.689-.733 1.109-.831.427-.1.825-.004 1.195.29.368.286.614.687.737 1.203.121.509.121 1.061 0 1.656a3.773 3.773 0 0 1-.719 1.568c-.351.448-.772.73-1.263.845-.363.085-.704-.01-1.025-.285s-.542-.667-.663-1.176c-.123-.516-.129-1.077-.018-1.685zM14.505 17.565a1.999 1.999 0 0 0-.279-.651c-.13-.201-.282-.333-.455-.397-.459.25-.792.727-.999 1.432-.202.696-.239 1.317-.109 1.861s.345.851.647.922c.488-.219.84-.667 1.054-1.344.22-.686.267-1.293.14-1.823zm-2.782.755c.118-.61.334-1.138.648-1.584.32-.456.689-.733 1.109-.831.427-.1.825-.004 1.195.29.368.286.614.687.737 1.203.121.509.121 1.061 0 1.656a3.773 3.773 0 0 1-.719 1.568c-.351.448-.772.73-1.263.845-.363.085-.704-.01-1.025-.285s-.542-.667-.663-1.176c-.123-.516-.129-1.077-.018-1.685zM19.547 11.345c.114-.027.278.047.492.22.219.165.351.339.395.523s.079.727.107 1.631c.026.897.03 1.832.014 2.805-.021 2.183-.113 3.294-.277 3.332-.1.023-.224-.011-.374-.102-.144-.1-.227-.197-.249-.288s-.041-.281-.056-.569c-.529.87-1.053 1.366-1.572 1.488-.313.074-.631-.001-.954-.223-.316-.224-.51-.488-.583-.792-.104-.438-.11-.985-.019-1.64.097-.664.311-1.296.641-1.896s.748-.959 1.253-1.078c.505-.119.928.099 1.27.652.006-1.583-.076-2.813-.248-3.69-.05-.212.003-.336.159-.373zm.065 5.478c-.091-.381-.235-.687-.432-.917-.19-.231-.378-.325-.563-.282-.306.072-.574.333-.805.782s-.384.941-.46 1.473c-.071.524-.064.962.02 1.316.03.127.101.219.212.275s.23.069.358.039c.277-.065.604-.351.979-.857a3.561 3.561 0 0 0 .702-1.642l.002-.135-.013-.053zM26.421 16.184c.138.579-.009 1.128-.441 1.648a3.044 3.044 0 0 1-1.675 1.009c-.675.159-1.275.117-1.798-.125-.525-.25-.824-.53-.898-.841-.05-.212-.012-.333.116-.363.114-.027.378.09.793.351.157.09.354.163.593.219.246.054.489.053.731-.004a2.403 2.403 0 0 0 1.232-.692c.331-.346.461-.668.39-.964-.045-.191-.231-.404-.558-.641s-.677-.449-1.052-.636c-.37-.197-.719-.417-1.047-.66s-.513-.454-.555-.63c-.042-.177-.051-.372-.027-.587s.068-.378.131-.49c.205-.369.569-.749 1.091-1.14.53-.393.994-.636 1.392-.73.206-.048.396-.022.571.078s.279.225.314.374c.017.071-.044.145-.184.222s-.353.187-.642.33a5.204 5.204 0 0 0-.744.421c-.744.503-1.081.899-1.012 1.189.037.155.556.492 1.558 1.01.386.2.75.454 1.093.761.349.298.559.596.629.893zM28.87 16.716c.032.134.126.183.283.146.27-.064.58-.215.928-.453.354-.247.552-.376.595-.386.128-.03.208.022.24.156.049.205-.108.492-.471.86-.356.367-.708.592-1.056.674-.341.08-.648.055-.919-.075-.273-.137-.433-.305-.48-.503s-.064-.459-.051-.782c.011-.331.036-.765.073-1.304.042-.547.07-.997.084-1.351-.316.156-.53.248-.644.275s-.241-.003-.382-.089c-.135-.095-.215-.196-.241-.302-.04-.169.383-.441 1.271-.813a7.617 7.617 0 0 0-.179-1.603c-.05-.212-.005-.335.138-.368.121-.028.289.014.503.128.213.107.342.255.388.446s.065.54.058 1.049c.397-.131.716-.224.958-.281.427-.1.662-.059.706.125.025.106-.071.222-.289.348-.211.124-.668.347-1.372.669a47.72 47.72 0 0 1-.109 2.051c-.058.767-.068 1.228-.031 1.384zM33.639 11.164c.32-.075.654.018 1.001.279.346.254.55.512.612.774.06.254.034.537-.08.847.111.086.175.168.194.245.047.198.082.548.103 1.05.029.5.05.827.064.981a3.374 3.374 0 0 1 .05.637c.014.183-.029.287-.129.31-.128.03-.261-.054-.398-.253a3.17 3.17 0 0 1-.345-.836c-.443.947-.935 1.484-1.475 1.611-.327.077-.683.015-1.069-.185-.38-.209-.605-.462-.676-.758-.101-.424-.069-.983.096-1.678.163-.702.436-1.356.817-1.96s.793-.959 1.234-1.062zm.935 1.75c-.156-.657-.366-.954-.629-.893-.277.065-.554.339-.829.822-.277.475-.485.991-.623 1.545s-.173.977-.104 1.266c.029.12.102.207.22.262a.609.609 0 0 0 .377.023c.334-.079.658-.39.972-.933a3.813 3.813 0 0 0 .484-1.848c-.004-.111.041-.189.136-.233l-.002-.011z"/><path fill="#bbf330" style="fill:var(--color3,#bbf330)" d="M31.525 20.209c-.487.12-.876.479-1.073.941a13.291 13.291 0 0 1-12.24 8.048 13.288 13.288 0 0 1-8.41-2.977 1.59 1.59 0 0 0-1.38-.331c-1.085.267-1.487 1.578-.635 2.3a16.086 16.086 0 0 0 10.425 3.811c6.774 0 12.57-4.161 14.944-10.053.416-1.034-.549-2.004-1.631-1.738zM4.193 13.954c.562-.138.982-.598 1.123-1.159 1.441-5.732 6.657-9.993 12.895-9.993 3.94 0 7.473 1.7 9.904 4.397.385.427.967.636 1.525.498.981-.241 1.421-1.382.759-2.145A16.095 16.095 0 0 0 18.211 0C10.563 0 4.162 5.304 2.524 12.414c-.226.98.692 1.78 1.668 1.54z"/><path fill="#bbf330" style="fill:var(--color3,#bbf330);stroke:var(--color3,#bbf330)" stroke="#bbf330" stroke-linejoin="round" stroke-width="1.031" d="M42.409 5.331c-3.803 7.241-5.473 2.465-10.826 5.271.535-8.406 6.205-3.291 10.826-5.271z"/></symbol><symbol id="star" viewBox="0 0 36 32"><path d="M15.639 1.037c.593-1.383 2.611-1.383 3.204 0l3.498 8.164c.25.583.815.982 1.463 1.032l9.079.707c1.538.12 2.162 1.983.99 2.958l-6.917 5.752a1.656 1.656 0 0 0-.559 1.67l2.113 8.6c.358 1.457-1.275 2.609-2.592 1.828l-7.773-4.609a1.781 1.781 0 0 0-1.809 0l-7.773 4.609c-1.317.781-2.95-.371-2.592-1.828l2.113-8.6a1.656 1.656 0 0 0-.559-1.67L.607 13.898c-1.172-.975-.548-2.838.99-2.958l9.079-.707a1.73 1.73 0 0 0 1.463-1.032l3.498-8.164z"/></symbol><symbol id="right-arrow-tablet" viewBox="0 0 17 32"><path fill="#fff" style="fill:var(--color5,#fff)" stroke-width="1.454" stroke="#000" d="M16.349 15.605a.548.548 0 0 1 .125.61.55.55 0 0 1-.125.18L2.163 29.911a.543.543 0 0 1-.747.005l-.008-.008-.014-.013a.442.442 0 0 1 0-.644l.001-.001 13.911-13.249L1.394 2.746a.442.442 0 0 1 0-.644l.021-.021a.545.545 0 0 1 .747.005l14.186 13.516z"/></symbol><symbol id="left-arrow-tablet" viewBox="0 0 17 32"><path fill="#fff" style="fill:var(--color5,#fff)" stroke-width="1.454" stroke="#000" d="M1.105 16.395a.548.548 0 0 1-.125-.61.55.55 0 0 1 .125-.18L15.291 2.089a.545.545 0 0 1 .747-.005l.008.008.014.013a.442.442 0 0 1 0 .644l-.001.001L2.148 15.999 16.06 29.254a.442.442 0 0 1 0 .644l-.013.013-.008.008a.543.543 0 0 1-.747-.005L1.106 16.398z"/></symbol><symbol id="right-arrow-desctop" viewBox="0 0 18 32"><path d="M17.653 15.035 2.792.875a1.334 1.334 0 0 0-1.84 0L.936.891a1.222 1.222 0 0 0-.282 1.373c.065.153.162.291.282.405l13.995 13.333L.936 29.33a1.212 1.212 0 0 0-.381.889 1.236 1.236 0 0 0 .381.889l.016.016a1.334 1.334 0 0 0 1.84 0l14.861-14.16a1.331 1.331 0 0 0 0-1.93z"/></symbol><symbol id="left-arrow-desctop" viewBox="0 0 18 32"><path d="m.48 16.965 14.861 14.16a1.334 1.334 0 0 0 1.84 0l.016-.016a1.237 1.237 0 0 0 .382-.889 1.22 1.22 0 0 0-.382-.889L3.202 15.998 17.197 2.67a1.222 1.222 0 0 0 .282-1.373 1.231 1.231 0 0 0-.282-.405l-.016-.016a1.336 1.336 0 0 0-1.84 0L.48 15.036a1.331 1.331 0 0 0 0 1.93z"/></symbol><symbol id="icon-order" viewBox="0 0 32 32"><path fill="#fefefe" style="fill:var(--color6,#fefefe)" d="M32 16c0 8.837-7.163 16-16 16S0 24.837 0 16 7.163 0 16 0s16 7.163 16 16z"/><path fill="#7eb101" style="fill:var(--color7,#7eb101)" d="M15.667 6.222c1.348 0 2.5.47 3.456 1.411s1.433 2.085 1.433 3.433c0 .77-.167 1.496-.5 2.178s-.804 1.259-1.411 1.733h-.756v-1.111c.43-.341.759-.756.989-1.244s.344-1.007.344-1.556c0-.978-.348-1.807-1.044-2.489s-1.533-1.022-2.511-1.022-1.815.341-2.511 1.022a3.353 3.353 0 0 0-1.044 2.489c0 .548.115 1.067.344 1.556s.559.904.989 1.244v1.6c-.83-.43-1.481-1.037-1.956-1.822s-.711-1.644-.711-2.578c0-1.348.478-2.493 1.433-3.433s2.107-1.411 3.456-1.411zm-.845 18.667c-.252 0-.489-.048-.711-.144s-.415-.226-.578-.389l-4.578-4.578 1.244-1.289c.207-.207.441-.367.7-.478s.53-.13.811-.056l1.733.4v-7.244c0-.622.215-1.148.644-1.578s.956-.644 1.578-.644 1.148.215 1.578.644c.43.43.644.956.644 1.578v3.822h.578c.074 0 .141.015.2.044s.126.059.2.089l3.289 1.6c.356.163.619.426.789.789s.219.737.144 1.122l-.8 4.844c-.074.43-.281.781-.622 1.056s-.726.411-1.156.411H14.82zm-.178-1.333h6.244l.956-5.533-4.067-2.022h-1.222v-4.889c0-.267-.081-.481-.244-.644s-.378-.244-.644-.244-.481.081-.644.244c-.163.163-.244.378-.244.644v8.867l-3.422-.733-.511.511 3.8 3.8zm6.245 0z"/></symbol><symbol id="icon-deliv" viewBox="0 0 32 32"><path fill="#fefefe" style="fill:var(--color6,#fefefe)" d="M32 16c0 8.837-7.163 16-16 16S0 24.837 0 16 7.163 0 16 0s16 7.163 16 16z"/><path fill="#7eb101" style="fill:var(--color7,#7eb101)" d="m9.489 14.422 2.356 1c.267-.533.552-1.059.856-1.578s.626-1.015.967-1.489l-1.756-.356-2.422 2.422zm3.422 1.8 2.956 2.956c.844-.385 1.637-.822 2.378-1.311s1.341-.963 1.8-1.422c1.2-1.2 2.081-2.43 2.644-3.689s.867-2.682.911-4.267c-1.585.044-3.007.348-4.267.911s-2.489 1.444-3.689 2.644c-.459.459-.933 1.059-1.422 1.8s-.926 1.533-1.311 2.378zM18 14.089c-.296-.296-.444-.663-.444-1.1s.148-.804.444-1.1c.296-.296.663-.444 1.1-.444s.804.148 1.1.444c.296.296.444.663.444 1.1s-.148.804-.444 1.1c-.296.296-.663.444-1.1.444s-.804-.148-1.1-.444zm-.333 8.511 2.422-2.422-.356-1.756c-.474.341-.97.663-1.489.967s-1.044.589-1.578.856l1 2.356zm7.244-15.422c.133 2.015-.119 3.852-.756 5.511s-1.689 3.222-3.156 4.689l-.089.089.489 2.444c.044.222.033.437-.033.644s-.181.393-.344.556l-3.8 3.822-1.889-4.4-3.778-3.778-4.4-1.889 3.822-3.8c.163-.163.348-.278.556-.344s.422-.078.644-.033l2.444.489c.015-.015.03-.026.044-.033s.03-.019.044-.033c1.467-1.467 3.03-2.522 4.689-3.167s3.496-.9 5.511-.767zM8.644 19.444c.518-.519 1.152-.781 1.9-.789s1.381.248 1.9.767c.518.518.774 1.152.767 1.9s-.27 1.381-.789 1.9c-.385.385-.981.704-1.789.956s-2.019.489-3.633.711c.222-1.615.456-2.83.7-3.644s.559-1.415.944-1.8zm.934.956c-.207.222-.393.57-.556 1.044s-.304 1.081-.422 1.822c.741-.118 1.348-.259 1.822-.422s.822-.348 1.044-.556c.281-.252.426-.567.433-.944s-.122-.707-.389-.989c-.282-.267-.611-.396-.989-.389s-.693.152-.944.433z"/></symbol><symbol id="logo" viewBox="0 0 44 32"><path fill="#ffe550" style="fill:var(--color4,#ffe550)" d="M16.394 6.486c1.012-1.989 3.853-1.989 4.865 0l1.259 2.476a2.731 2.731 0 0 0 2.002 1.458l2.752.439c2.197.351 3.074 3.042 1.504 4.62l-1.981 1.991a2.726 2.726 0 0 0-.761 2.349l.435 2.769c.346 2.202-1.951 3.868-3.937 2.854l-2.465-1.259a2.729 2.729 0 0 0-2.482 0l-2.465 1.259c-1.985 1.014-4.283-.652-3.937-2.854l.435-2.769a2.732 2.732 0 0 0-.761-2.349l-1.981-1.991c-1.57-1.577-.693-4.269 1.504-4.62l2.752-.439a2.73 2.73 0 0 0 2.002-1.458l1.259-2.476z"/><path fill="#2c2c2c" style="fill:var(--color2,#2c2c2c)" d="m3.427 20.356-.021.005c.003.074-.001.374-.012.9-.003.524-.005.869-.003 1.033 0 .157-.004.285-.01.384l.001.336c-.002.12-.008.219-.02.296l-.019.206c-.014.13-.042.201-.085.211-.092.022-.236-.049-.431-.212-.197-.17-.311-.319-.341-.446s-.037-1.061-.021-2.8c.023-1.741-.022-2.885-.137-3.434a.421.421 0 0 1 .014-.273c.036-.166.22-.321.551-.467.339-.148.845-.301 1.517-.461.68-.161 1.219-.252 1.618-.272.406-.022.624.031.654.159.02.085-.026.159-.138.223s-.212.117-.299.161a55.15 55.15 0 0 1-.349.139c-.145.049-.28.096-.404.141-.126.037-.289.091-.489.161-.193.068-.372.133-.537.195-.167.055-.391.134-.673.238s-.465.17-.548.197c.012.02.023.051.033.093.079.333.121 1.131.127 2.393.444-.083.912-.205 1.405-.367.5-.163.806-.259.92-.286.269-.064.417-.039.444.074.052.22-.213.477-.794.772a8.7 8.7 0 0 1-1.955.699zm6.933-1.959a2.013 2.013 0 0 0-.277-.652c-.13-.201-.281-.334-.453-.397-.457.251-.789.729-.996 1.437-.202.699-.238 1.32-.11 1.866s.343.853.644.924c.486-.22.836-.67 1.05-1.349.219-.688.266-1.297.141-1.828zm-2.771.758c.118-.611.333-1.141.646-1.589.318-.457.686-.735 1.104-.834.425-.101.821-.004 1.19.29.367.287.611.689.733 1.206.12.51.12 1.063-.001 1.661a3.802 3.802 0 0 1-.717 1.573c-.35.45-.769.732-1.258.848-.361.086-.701-.009-1.021-.285s-.539-.669-.659-1.179c-.122-.517-.128-1.08-.017-1.69zm7.584-1.9a2.013 2.013 0 0 0-.277-.652c-.13-.201-.28-.334-.453-.397-.457.251-.789.729-.996 1.437-.202.699-.238 1.32-.11 1.866s.343.853.644.924c.486-.22.836-.67 1.05-1.349.219-.688.266-1.297.141-1.828zm-2.771.758c.118-.611.333-1.141.646-1.589.318-.457.687-.735 1.104-.834.425-.101.821-.004 1.19.29.367.287.611.689.733 1.206.12.51.12 1.064-.001 1.661a3.802 3.802 0 0 1-.717 1.573c-.35.45-.769.732-1.258.848-.361.086-.701-.009-1.021-.285s-.539-.669-.659-1.179c-.122-.517-.128-1.08-.017-1.69zm7.794-6.999c.113-.027.276.047.489.22.218.165.349.34.393.524s.079.729.105 1.635c.025.899.029 1.837.013 2.813-.022 2.189-.115 3.303-.277 3.342-.099.023-.223-.011-.372-.102-.143-.101-.226-.197-.248-.289s-.04-.282-.056-.57c-.527.873-1.049 1.371-1.566 1.493-.311.074-.628-.001-.95-.223-.315-.225-.508-.489-.58-.794-.104-.439-.109-.987-.018-1.645.097-.666.31-1.3.639-1.902s.745-.962 1.248-1.081.924.099 1.264.654c.007-1.587-.074-2.821-.244-3.7-.05-.213.003-.337.159-.374zm.062 5.494c-.09-.382-.233-.689-.43-.919-.189-.232-.376-.326-.56-.282-.305.072-.572.334-.802.785s-.383.944-.459 1.478c-.071.525-.064.965.019 1.319.03.128.1.219.211.275s.229.069.357.039c.276-.066.601-.352.975-.86a3.581 3.581 0 0 0 .7-1.647l.002-.135-.013-.053zm6.779-.644c.137.581-.01 1.132-.44 1.653a3.03 3.03 0 0 1-1.668 1.013c-.673.16-1.269.118-1.79-.125-.523-.25-.82-.531-.894-.842-.05-.212-.011-.334.116-.364.113-.027.376.09.789.351.156.09.352.163.59.219.245.054.487.053.728-.004a2.385 2.385 0 0 0 1.227-.695c.329-.347.459-.67.389-.967-.045-.191-.23-.405-.555-.642s-.674-.45-1.048-.638c-.368-.197-.715-.417-1.042-.661s-.511-.455-.553-.632c-.042-.177-.051-.373-.027-.588s.068-.379.131-.491c.204-.37.567-.752 1.087-1.144.528-.394.99-.639 1.386-.733.205-.049.395-.023.568.078s.278.226.313.375c.017.071-.044.145-.183.223s-.352.188-.64.331a5.176 5.176 0 0 0-.741.423c-.741.505-1.077.902-1.008 1.193.037.156.554.493 1.551 1.012.384.201.747.455 1.088.763.347.299.556.597.626.895zm2.438.532c.032.135.125.183.281.146.269-.064.577-.215.924-.455.353-.248.55-.377.593-.387.127-.03.207.022.239.156.048.205-.108.493-.469.863-.354.368-.705.594-1.052.676-.34.081-.645.056-.915-.075-.272-.137-.431-.305-.478-.504s-.064-.46-.05-.785c.011-.332.036-.768.073-1.308.043-.549.071-1 .084-1.355-.314.157-.528.249-.642.276s-.24-.003-.38-.089c-.135-.095-.214-.196-.239-.302-.04-.17.382-.442 1.265-.816a7.66 7.66 0 0 0-.177-1.607c-.05-.213-.004-.335.137-.369.12-.029.287.014.501.128.212.107.341.256.386.447s.064.542.057 1.052c.395-.131.713-.225.954-.282.425-.101.659-.059.702.125.025.106-.071.223-.288.349-.21.125-.665.349-1.367.672-.017.595-.053 1.28-.109 2.057-.058.769-.069 1.232-.032 1.387zm4.751-5.57c.319-.076.651.018.997.28.344.255.547.513.609.775.06.255.033.538-.08.849.11.086.174.168.193.246.047.198.081.549.102 1.053.029.502.05.83.064.983a3.4 3.4 0 0 1 .05.639c.013.184-.029.287-.129.311-.127.03-.26-.054-.396-.254a3.191 3.191 0 0 1-.343-.838c-.441.95-.931 1.489-1.469 1.616-.326.077-.68.016-1.064-.185-.378-.209-.603-.463-.673-.76-.1-.425-.068-.986.097-1.683.163-.704.435-1.36.815-1.966s.79-.962 1.229-1.066zm.93 1.754c-.155-.659-.364-.957-.626-.895-.276.066-.551.34-.826.824-.276.477-.483.994-.621 1.55s-.173.98-.104 1.27a.37.37 0 0 0 .219.262.606.606 0 0 0 .376.023c.333-.079.655-.391.968-.937a3.84 3.84 0 0 0 .483-1.853c-.004-.111.041-.189.135-.234l-.002-.011z"/><path fill="#bbf330" style="fill:var(--color3,#bbf330)" d="M32.978 19.975a.912.912 0 0 0-.642.603c-1.901 5.652-7.227 9.717-13.492 9.717-3.8 0-7.254-1.495-9.808-3.933a.917.917 0 0 0-.85-.234c-.639.159-.881.932-.408 1.39a15.857 15.857 0 0 0 11.067 4.483c7.06 0 13.048-4.605 15.144-10.986.206-.626-.371-1.198-1.01-1.04zM4.171 14.148a.907.907 0 0 0 .666-.725C6.046 6.754 11.861 1.705 18.844 1.705c4.541 0 8.588 2.135 11.196 5.463.22.281.582.416.928.33.584-.145.848-.823.48-1.298C28.532 2.428 23.971 0 18.845 0 10.984 0 4.451 5.71 3.142 13.224c-.103.593.447 1.07 1.031.925z"/><path fill="#bbf330" style="fill:var(--color3,#bbf330);stroke:var(--color3,#bbf330)" stroke="#bbf330" stroke-linejoin="round" stroke-width=".627" d="M42.816 5.331c-3.768 7.241-5.422 2.465-10.725 5.271.53-8.406 6.148-3.291 10.725-5.271z"/></symbol><symbol id="icon-gg_menu" viewBox="0 0 32 32"><path fill="#7eb101" style="fill:var(--color1,#7eb101)" d="M2.666 8A1.335 1.335 0 0 1 4 6.666h24A1.33 1.33 0 0 1 29.333 8 1.333 1.333 0 0 1 28 9.334H4A1.335 1.335 0 0 1 2.666 8zm0 8.043A1.33 1.33 0 0 1 4 14.71h24a1.333 1.333 0 1 1 0 2.666H4a1.333 1.333 0 0 1-1.334-1.333zM4 22.752a1.337 1.337 0 0 0-1.334 1.333A1.33 1.33 0 0 0 4 25.418h24a1.333 1.333 0 1 0 0-2.666H4z"/></symbol></defs></svg>