<svg aria-hidden="true" style="position: absolute; width: 0; height: 0; overflow: hidden;" version="1.1" xmlns="http://www.w3.org/2000/svg" xmlns:xlink="http://www.w3.org/1999/xlink">
<defs>
<symbol id="logo-footer" viewBox="0 0 43 32">
<path fill="#ffe553" style="fill: var(--color1, #ffe553)" d="M14.732 8.449c1.446-2.818 5.48-2.818 6.926 0 0.565 1.1 1.627 1.867 2.849 2.060 3.119 0.493 4.381 4.322 2.144 6.55-0.878 0.874-1.283 2.117-1.088 3.34 0.494 3.117-2.785 5.468-5.601 4.043-1.105-0.559-2.428-0.559-3.533 0-2.816 1.424-6.095-0.927-5.601-4.043 0.194-1.223-0.211-2.466-1.088-3.34-2.238-2.227-0.975-6.057 2.144-6.55 1.221-0.193 2.284-0.96 2.849-2.060z"></path>
<path fill="#2c2c2c" style="fill: var(--color2, #2c2c2c)" d="M2.709 20.651l-0.021 0.005c0.003 0.074-0.001 0.373-0.012 0.898-0.003 0.523-0.004 0.866-0.003 1.030-0 0.157-0.004 0.284-0.010 0.383 0.001 0.097 0.001 0.209 0.001 0.335-0.002 0.12-0.008 0.218-0.020 0.296-0.006 0.069-0.012 0.137-0.019 0.206-0.014 0.13-0.042 0.2-0.085 0.21-0.092 0.022-0.237-0.049-0.433-0.211-0.198-0.17-0.312-0.318-0.343-0.445s-0.038-1.058-0.022-2.792c0.022-1.736-0.024-2.877-0.139-3.425-0.025-0.106-0.020-0.197 0.014-0.272 0.036-0.165 0.22-0.32 0.554-0.466 0.34-0.147 0.848-0.3 1.524-0.459 0.683-0.161 1.224-0.251 1.625-0.27 0.408-0.021 0.627 0.032 0.657 0.159 0.020 0.085-0.026 0.159-0.138 0.223s-0.212 0.117-0.3 0.16c-0.089 0.036-0.206 0.082-0.35 0.138-0.146 0.049-0.281 0.096-0.406 0.14-0.126 0.037-0.29 0.091-0.491 0.16-0.194 0.068-0.374 0.133-0.539 0.194-0.167 0.054-0.393 0.133-0.676 0.237s-0.467 0.169-0.55 0.196c0.012 0.020 0.023 0.050 0.033 0.093 0.079 0.332 0.122 1.127 0.129 2.386 0.446-0.082 0.916-0.204 1.411-0.365 0.502-0.163 0.81-0.258 0.923-0.284 0.27-0.064 0.419-0.039 0.446 0.074 0.052 0.219-0.213 0.475-0.797 0.769-0.576 0.292-1.231 0.524-1.963 0.696z"></path>
<path fill="#2c2c2c" style="fill: var(--color2, #2c2c2c)" d="M9.672 18.701c-0.057-0.24-0.15-0.457-0.279-0.651-0.13-0.201-0.282-0.333-0.455-0.397-0.459 0.25-0.792 0.727-0.999 1.432-0.202 0.696-0.239 1.317-0.109 1.861s0.345 0.851 0.647 0.922c0.488-0.219 0.84-0.667 1.054-1.344 0.22-0.686 0.267-1.293 0.14-1.823zM6.89 19.456c0.118-0.61 0.334-1.138 0.648-1.584 0.32-0.456 0.689-0.733 1.109-0.831 0.427-0.1 0.825-0.004 1.195 0.29 0.368 0.286 0.614 0.687 0.737 1.203 0.121 0.509 0.121 1.061-0 1.656-0.123 0.588-0.363 1.111-0.719 1.568-0.351 0.448-0.772 0.73-1.263 0.845-0.363 0.085-0.704-0.010-1.025-0.285s-0.542-0.667-0.663-1.176c-0.123-0.516-0.129-1.077-0.018-1.685z"></path>
<path fill="#2c2c2c" style="fill: var(--color2, #2c2c2c)" d="M14.505 17.565c-0.057-0.24-0.15-0.457-0.279-0.651-0.13-0.201-0.282-0.333-0.455-0.397-0.459 0.25-0.792 0.727-0.999 1.432-0.202 0.696-0.239 1.317-0.109 1.861s0.345 0.851 0.647 0.922c0.488-0.219 0.84-0.667 1.054-1.344 0.22-0.686 0.267-1.293 0.14-1.823zM11.723 18.32c0.118-0.61 0.334-1.138 0.648-1.584 0.32-0.456 0.689-0.733 1.109-0.831 0.427-0.1 0.825-0.004 1.195 0.29 0.368 0.286 0.614 0.687 0.737 1.203 0.121 0.509 0.121 1.061-0 1.656-0.123 0.588-0.363 1.111-0.719 1.568-0.351 0.448-0.772 0.73-1.263 0.845-0.363 0.085-0.704-0.010-1.025-0.285s-0.542-0.667-0.663-1.176c-0.123-0.516-0.129-1.077-0.018-1.685z"></path>
<path fill="#2c2c2c" style="fill: var(--color2, #2c2c2c)" d="M19.547 11.345c0.114-0.027 0.278 0.047 0.492 0.22 0.219 0.165 0.351 0.339 0.395 0.523s0.079 0.727 0.107 1.631c0.026 0.897 0.030 1.832 0.014 2.805-0.021 2.183-0.113 3.294-0.277 3.332-0.1 0.023-0.224-0.011-0.374-0.102-0.144-0.1-0.227-0.197-0.249-0.288s-0.041-0.281-0.056-0.569c-0.529 0.87-1.053 1.366-1.572 1.488-0.313 0.074-0.631-0.001-0.954-0.223-0.316-0.224-0.51-0.488-0.583-0.792-0.104-0.438-0.11-0.985-0.019-1.64 0.097-0.664 0.311-1.296 0.641-1.896s0.748-0.959 1.253-1.078c0.505-0.119 0.928 0.099 1.27 0.652 0.006-1.583-0.076-2.813-0.248-3.69-0.050-0.212 0.003-0.336 0.159-0.373zM19.612 16.823c-0.091-0.381-0.235-0.687-0.432-0.917-0.19-0.231-0.378-0.325-0.563-0.282-0.306 0.072-0.574 0.333-0.805 0.782s-0.384 0.941-0.46 1.473c-0.071 0.524-0.064 0.962 0.020 1.316 0.030 0.127 0.101 0.219 0.212 0.275s0.23 0.069 0.358 0.039c0.277-0.065 0.604-0.351 0.979-0.857 0.382-0.508 0.616-1.055 0.702-1.642l0.002-0.135-0.013-0.053z"></path>
<path fill="#2c2c2c" style="fill: var(--color2, #2c2c2c)" d="M26.421 16.184c0.138 0.579-0.009 1.128-0.441 1.648-0.434 0.512-0.992 0.849-1.675 1.009-0.675 0.159-1.275 0.117-1.798-0.125-0.525-0.25-0.824-0.53-0.898-0.841-0.050-0.212-0.012-0.333 0.116-0.363 0.114-0.027 0.378 0.090 0.793 0.351 0.157 0.090 0.354 0.163 0.593 0.219 0.246 0.054 0.489 0.053 0.731-0.004 0.498-0.117 0.908-0.348 1.232-0.692 0.331-0.346 0.461-0.668 0.39-0.964-0.045-0.191-0.231-0.404-0.558-0.641s-0.677-0.449-1.052-0.636c-0.37-0.197-0.719-0.417-1.047-0.66s-0.513-0.454-0.555-0.63c-0.042-0.177-0.051-0.372-0.027-0.587s0.068-0.378 0.131-0.49c0.205-0.369 0.569-0.749 1.091-1.14 0.53-0.393 0.994-0.636 1.392-0.73 0.206-0.048 0.396-0.022 0.571 0.078s0.279 0.225 0.314 0.374c0.017 0.071-0.044 0.145-0.184 0.222s-0.353 0.187-0.642 0.33c-0.284 0.134-0.532 0.274-0.744 0.421-0.744 0.503-1.081 0.899-1.012 1.189 0.037 0.155 0.556 0.492 1.558 1.010 0.386 0.2 0.75 0.454 1.093 0.761 0.349 0.298 0.559 0.596 0.629 0.893z"></path>
<path fill="#2c2c2c" style="fill: var(--color2, #2c2c2c)" d="M28.87 16.716c0.032 0.134 0.126 0.183 0.283 0.146 0.27-0.064 0.58-0.215 0.928-0.453 0.354-0.247 0.552-0.376 0.595-0.386 0.128-0.030 0.208 0.022 0.24 0.156 0.049 0.205-0.108 0.492-0.471 0.86-0.356 0.367-0.708 0.592-1.056 0.674-0.341 0.080-0.648 0.055-0.919-0.075-0.273-0.137-0.433-0.305-0.48-0.503s-0.064-0.459-0.051-0.782c0.011-0.331 0.036-0.765 0.073-1.304 0.042-0.547 0.070-0.997 0.084-1.351-0.316 0.156-0.53 0.248-0.644 0.275s-0.241-0.003-0.382-0.089c-0.135-0.095-0.215-0.196-0.241-0.302-0.040-0.169 0.383-0.441 1.271-0.813-0.012-0.616-0.071-1.151-0.179-1.603-0.050-0.212-0.005-0.335 0.138-0.368 0.121-0.028 0.289 0.014 0.503 0.128 0.213 0.107 0.342 0.255 0.388 0.446s0.065 0.54 0.058 1.049c0.397-0.131 0.716-0.224 0.958-0.281 0.427-0.1 0.662-0.059 0.706 0.125 0.025 0.106-0.071 0.222-0.289 0.348-0.211 0.124-0.668 0.347-1.372 0.669-0.017 0.593-0.053 1.277-0.109 2.051-0.058 0.767-0.068 1.228-0.031 1.384z"></path>
<path fill="#2c2c2c" style="fill: var(--color2, #2c2c2c)" d="M33.639 11.164c0.32-0.075 0.654 0.018 1.001 0.279 0.346 0.254 0.55 0.512 0.612 0.774 0.060 0.254 0.034 0.537-0.080 0.847 0.111 0.086 0.175 0.168 0.194 0.245 0.047 0.198 0.082 0.548 0.103 1.050 0.029 0.5 0.050 0.827 0.064 0.981 0.021 0.152 0.035 0.275 0.043 0.37 0.006 0.088 0.008 0.177 0.007 0.267 0.014 0.183-0.029 0.287-0.129 0.31-0.128 0.030-0.261-0.054-0.398-0.253-0.132-0.208-0.247-0.486-0.345-0.836-0.443 0.947-0.935 1.484-1.475 1.611-0.327 0.077-0.683 0.015-1.069-0.185-0.38-0.209-0.605-0.462-0.676-0.758-0.101-0.424-0.069-0.983 0.096-1.678 0.163-0.702 0.436-1.356 0.817-1.96s0.793-0.959 1.234-1.062zM34.574 12.914c-0.156-0.657-0.366-0.954-0.629-0.893-0.277 0.065-0.554 0.339-0.829 0.822-0.277 0.475-0.485 0.991-0.623 1.545s-0.173 0.977-0.104 1.266c0.029 0.12 0.102 0.207 0.22 0.262 0.116 0.047 0.242 0.055 0.377 0.023 0.334-0.079 0.658-0.39 0.972-0.933 0.312-0.551 0.473-1.167 0.484-1.848-0.004-0.111 0.041-0.189 0.136-0.233l-0.002-0.011z"></path>
<path fill="#bbf330" style="fill: var(--color3, #bbf330)" d="M31.525 20.209c-0.487 0.12-0.876 0.479-1.073 0.941-2.018 4.725-6.731 8.048-12.24 8.048-3.194 0-6.121-1.117-8.41-2.977-0.387-0.315-0.896-0.451-1.38-0.331-1.085 0.267-1.487 1.578-0.635 2.3 2.808 2.376 6.448 3.811 10.425 3.811 6.774 0 12.57-4.161 14.944-10.053 0.416-1.034-0.549-2.004-1.631-1.738zM4.193 13.954c0.562-0.138 0.982-0.598 1.123-1.159 1.441-5.732 6.657-9.993 12.895-9.993 3.94 0 7.473 1.7 9.904 4.397 0.385 0.427 0.967 0.636 1.525 0.498 0.981-0.241 1.421-1.382 0.759-2.145-2.951-3.4-7.317-5.552-12.188-5.552-7.648 0-14.049 5.304-15.687 12.414-0.226 0.98 0.692 1.78 1.668 1.54z"></path>
<path fill="#bbf330" style="fill: var(--color3, #bbf330); stroke: var(--color3, #bbf330)" stroke="#bbf330" stroke-linejoin="round" stroke-linecap="butt" stroke-miterlimit="4" stroke-width="1.0308" d="M42.409 5.331c-3.803 7.241-5.473 2.465-10.826 5.271 0.535-8.406 6.205-3.291 10.826-5.271z"></path>
</symbol>
<symbol id="star" viewBox="0 0 36 32">
<path d="M15.639 1.037c0.593-1.383 2.611-1.383 3.204 0l3.498 8.164c0.25 0.583 0.815 0.982 1.463 1.032l9.079 0.707c1.538 0.12 2.162 1.983 0.99 2.958l-6.917 5.752c-0.494 0.411-0.71 1.056-0.559 1.67l2.113 8.6c0.358 1.457-1.275 2.609-2.592 1.828l-7.773-4.609c-0.555-0.329-1.253-0.329-1.809 0l-7.773 4.609c-1.317 0.781-2.95-0.371-2.592-1.828l2.113-8.6c0.151-0.614-0.065-1.259-0.559-1.67l-6.918-5.752c-1.172-0.975-0.548-2.838 0.99-2.958l9.079-0.707c0.649-0.050 1.213-0.449 1.463-1.032l3.498-8.164z"></path>
</symbol>
<symbol id="right-arrow-tablet" viewBox="0 0 17 32">
<path fill="#fff" style="fill: var(--color5, #fff)" stroke-linejoin="miter" stroke-linecap="butt" stroke-miterlimit="4" stroke-width="1.4545" stroke="#000" d="M16.349 15.605v0c0.054 0.051 0.096 0.112 0.125 0.18v0c0.029 0.068 0.044 0.141 0.044 0.215s-0.015 0.147-0.044 0.215v0c-0.029 0.068-0.072 0.129-0.125 0.18v0l-14.186 13.516c-0.101 0.097-0.236 0.151-0.376 0.151-0.138 0-0.271-0.052-0.371-0.146l-0.008-0.008 0-0-0.014-0.013c-0.044-0.041-0.078-0.091-0.102-0.147s-0.036-0.115-0.036-0.175 0.012-0.12 0.036-0.175c0.024-0.055 0.058-0.105 0.102-0.147l0.001-0.001 13.911-13.249-13.912-13.255c-0.044-0.041-0.078-0.091-0.102-0.147s-0.036-0.115-0.036-0.175c0-0.060 0.012-0.12 0.036-0.175s0.058-0.105 0.102-0.147l0 0 0.021-0.021c0.101-0.094 0.234-0.146 0.371-0.146 0.14 0 0.275 0.054 0.376 0.151l0 0 14.186 13.516z"></path>
</symbol>
<symbol id="left-arrow-tablet" viewBox="0 0 17 32">
<path fill="#fff" style="fill: var(--color5, #fff)" stroke-linejoin="miter" stroke-linecap="butt" stroke-miterlimit="4" stroke-width="1.4545" stroke="#000" d="M1.105 16.395v0c-0.053-0.051-0.096-0.112-0.125-0.18v0c-0.029-0.068-0.044-0.141-0.044-0.215s0.015-0.147 0.044-0.215v0c0.029-0.068 0.072-0.129 0.125-0.18v-0l14.186-13.516c0.102-0.097 0.236-0.151 0.376-0.151 0.138 0 0.271 0.052 0.371 0.146l0.008 0.008-0 0 0.014 0.013c0.044 0.041 0.078 0.091 0.102 0.147s0.036 0.115 0.036 0.175-0.012 0.12-0.036 0.175c-0.024 0.055-0.059 0.105-0.102 0.147l-0.001 0.001-13.911 13.249 13.912 13.255c0.044 0.041 0.078 0.091 0.102 0.147s0.036 0.115 0.036 0.175c0 0.060-0.012 0.12-0.036 0.175s-0.059 0.105-0.102 0.147l-0-0-0.013 0.013-0.008 0.008c-0.101 0.094-0.233 0.146-0.371 0.146-0.14 0-0.275-0.054-0.376-0.151l-0-0-14.186-13.516z"></path>
</symbol>
<symbol id="right-arrow-desctop" viewBox="0 0 18 32">
<path d="M17.653 15.035l-14.861-14.16c-0.248-0.236-0.577-0.368-0.92-0.368s-0.672 0.132-0.92 0.368l-0.016 0.016c-0.121 0.115-0.217 0.253-0.282 0.405s-0.099 0.318-0.099 0.484c0 0.166 0.034 0.331 0.099 0.484s0.162 0.291 0.282 0.405l13.995 13.333-13.995 13.328c-0.121 0.115-0.217 0.252-0.282 0.405s-0.099 0.317-0.099 0.484 0.034 0.331 0.099 0.484c0.066 0.153 0.162 0.291 0.282 0.405l0.016 0.016c0.248 0.236 0.577 0.368 0.92 0.368s0.672-0.132 0.92-0.368l14.861-14.16c0.131-0.125 0.235-0.274 0.306-0.44s0.108-0.345 0.108-0.525c0-0.181-0.037-0.359-0.108-0.525s-0.175-0.316-0.306-0.44z"></path>
</symbol>
<symbol id="left-arrow-desctop" viewBox="0 0 18 32">
<path d="M0.48 16.965l14.861 14.16c0.248 0.236 0.577 0.368 0.92 0.368s0.672-0.132 0.92-0.368l0.016-0.016c0.121-0.115 0.217-0.252 0.282-0.405s0.1-0.317 0.1-0.484-0.034-0.331-0.1-0.484c-0.066-0.153-0.162-0.291-0.282-0.405l-13.995-13.333 13.995-13.328c0.121-0.115 0.217-0.253 0.282-0.405s0.1-0.318 0.1-0.484-0.034-0.331-0.1-0.484c-0.066-0.153-0.162-0.291-0.282-0.405l-0.016-0.016c-0.248-0.236-0.578-0.368-0.92-0.368s-0.672 0.132-0.92 0.368l-14.861 14.16c-0.131 0.125-0.235 0.274-0.306 0.44s-0.108 0.345-0.108 0.525c0 0.181 0.037 0.359 0.108 0.525s0.175 0.316 0.306 0.44z"></path>
</symbol>
<symbol id="icon-order" viewBox="0 0 32 32">
<path fill="#fefefe" style="fill: var(--color6, #fefefe)" d="M32 16c0 8.837-7.163 16-16 16s-16-7.163-16-16c0-8.837 7.163-16 16-16s16 7.163 16 16z"></path>
<path fill="#7eb101" style="fill: var(--color7, #7eb101)" d="M15.667 6.222c1.348 0 2.5 0.47 3.456 1.411s1.433 2.085 1.433 3.433c0 0.77-0.167 1.496-0.5 2.178s-0.804 1.259-1.411 1.733h-0.756v-1.111c0.43-0.341 0.759-0.756 0.989-1.244s0.344-1.007 0.344-1.556c0-0.978-0.348-1.807-1.044-2.489s-1.533-1.022-2.511-1.022-1.815 0.341-2.511 1.022c-0.696 0.682-1.044 1.511-1.044 2.489 0 0.548 0.115 1.067 0.344 1.556s0.559 0.904 0.989 1.244v1.6c-0.83-0.43-1.481-1.037-1.956-1.822s-0.711-1.644-0.711-2.578c0-1.348 0.478-2.493 1.433-3.433s2.107-1.411 3.456-1.411zM14.822 24.889c-0.252 0-0.489-0.048-0.711-0.144s-0.415-0.226-0.578-0.389l-4.578-4.578 1.244-1.289c0.207-0.207 0.441-0.367 0.7-0.478s0.53-0.13 0.811-0.056l1.733 0.4v-7.244c0-0.622 0.215-1.148 0.644-1.578s0.956-0.644 1.578-0.644 1.148 0.215 1.578 0.644c0.43 0.43 0.644 0.956 0.644 1.578v3.822h0.578c0.074 0 0.141 0.015 0.2 0.044s0.126 0.059 0.2 0.089l3.289 1.6c0.356 0.163 0.619 0.426 0.789 0.789s0.219 0.737 0.144 1.122l-0.8 4.844c-0.074 0.43-0.281 0.781-0.622 1.056s-0.726 0.411-1.156 0.411h-5.689zM14.644 23.556h6.244l0.956-5.533-4.067-2.022h-1.222v-4.889c0-0.267-0.081-0.481-0.244-0.644s-0.378-0.244-0.644-0.244-0.481 0.081-0.644 0.244c-0.163 0.163-0.244 0.378-0.244 0.644v8.867l-3.422-0.733-0.511 0.511 3.8 3.8zM20.889 23.556v0z"></path>
</symbol>
<symbol id="icon-deliv" viewBox="0 0 32 32">
<path fill="#fefefe" style="fill: var(--color6, #fefefe)" d="M32 16c0 8.837-7.163 16-16 16s-16-7.163-16-16c0-8.837 7.163-16 16-16s16 7.163 16 16z"></path>
<path fill="#7eb101" style="fill: var(--color7, #7eb101)" d="M9.489 14.422l2.356 1c0.267-0.533 0.552-1.059 0.856-1.578s0.626-1.015 0.967-1.489l-1.756-0.356-2.422 2.422zM12.911 16.222l2.956 2.956c0.844-0.385 1.637-0.822 2.378-1.311s1.341-0.963 1.8-1.422c1.2-1.2 2.081-2.43 2.644-3.689s0.867-2.682 0.911-4.267c-1.585 0.044-3.007 0.348-4.267 0.911s-2.489 1.444-3.689 2.644c-0.459 0.459-0.933 1.059-1.422 1.8s-0.926 1.533-1.311 2.378zM18 14.089c-0.296-0.296-0.444-0.663-0.444-1.1s0.148-0.804 0.444-1.1c0.296-0.296 0.663-0.444 1.1-0.444s0.804 0.148 1.1 0.444c0.296 0.296 0.444 0.663 0.444 1.1s-0.148 0.804-0.444 1.1c-0.296 0.296-0.663 0.444-1.1 0.444s-0.804-0.148-1.1-0.444zM17.667 22.6l2.422-2.422-0.356-1.756c-0.474 0.341-0.97 0.663-1.489 0.967s-1.044 0.589-1.578 0.856l1 2.356zM24.911 7.178c0.133 2.015-0.119 3.852-0.756 5.511s-1.689 3.222-3.156 4.689l-0.089 0.089 0.489 2.444c0.044 0.222 0.033 0.437-0.033 0.644s-0.181 0.393-0.344 0.556l-3.8 3.822-1.889-4.4-3.778-3.778-4.4-1.889 3.822-3.8c0.163-0.163 0.348-0.278 0.556-0.344s0.422-0.078 0.644-0.033l2.444 0.489c0.015-0.015 0.030-0.026 0.044-0.033s0.030-0.019 0.044-0.033c1.467-1.467 3.030-2.522 4.689-3.167s3.496-0.9 5.511-0.767zM8.644 19.444c0.518-0.519 1.152-0.781 1.9-0.789s1.381 0.248 1.9 0.767c0.518 0.518 0.774 1.152 0.767 1.9s-0.27 1.381-0.789 1.9c-0.385 0.385-0.981 0.704-1.789 0.956s-2.019 0.489-3.633 0.711c0.222-1.615 0.456-2.83 0.7-3.644s0.559-1.415 0.944-1.8zM9.578 20.4c-0.207 0.222-0.393 0.57-0.556 1.044s-0.304 1.081-0.422 1.822c0.741-0.118 1.348-0.259 1.822-0.422s0.822-0.348 1.044-0.556c0.281-0.252 0.426-0.567 0.433-0.944s-0.122-0.707-0.389-0.989c-0.282-0.267-0.611-0.396-0.989-0.389s-0.693 0.152-0.944 0.433z"></path>
</symbol>
<symbol id="logo" viewBox="0 0 44 32">
<path fill="#ffe550" style="fill: var(--color4, #ffe550)" d="M16.394 6.486c1.012-1.989 3.853-1.989 4.865 0l1.259 2.476c0.396 0.778 1.14 1.32 2.002 1.458l2.752 0.439c2.197 0.351 3.074 3.042 1.504 4.62l-1.981 1.991c-0.614 0.617-0.897 1.489-0.761 2.349l0.435 2.769c0.346 2.202-1.951 3.868-3.937 2.854l-2.465-1.259c-0.779-0.398-1.702-0.398-2.482 0l-2.465 1.259c-1.985 1.014-4.283-0.652-3.937-2.854l0.435-2.769c0.135-0.859-0.148-1.732-0.761-2.349l-1.981-1.991c-1.57-1.577-0.693-4.269 1.504-4.62l2.752-0.439c0.862-0.138 1.607-0.68 2.002-1.458l1.259-2.476z"></path>
<path fill="#2c2c2c" style="fill: var(--color2, #2c2c2c)" d="M3.427 20.356l-0.021 0.005c0.003 0.074-0.001 0.374-0.012 0.9-0.003 0.524-0.005 0.869-0.003 1.033-0 0.157-0.004 0.285-0.010 0.384 0 0.097 0.001 0.209 0.001 0.336-0.002 0.12-0.008 0.219-0.020 0.296-0.006 0.069-0.012 0.138-0.019 0.206-0.014 0.13-0.042 0.201-0.085 0.211-0.092 0.022-0.236-0.049-0.431-0.212-0.197-0.17-0.311-0.319-0.341-0.446s-0.037-1.061-0.021-2.8c0.023-1.741-0.022-2.885-0.137-3.434-0.025-0.106-0.020-0.197 0.014-0.273 0.036-0.166 0.22-0.321 0.551-0.467 0.339-0.148 0.845-0.301 1.517-0.461 0.68-0.161 1.219-0.252 1.618-0.272 0.406-0.022 0.624 0.031 0.654 0.159 0.020 0.085-0.026 0.159-0.138 0.223s-0.212 0.117-0.299 0.161c-0.089 0.036-0.205 0.082-0.349 0.139-0.145 0.049-0.28 0.096-0.404 0.141-0.126 0.037-0.289 0.091-0.489 0.161-0.193 0.068-0.372 0.133-0.537 0.195-0.167 0.055-0.391 0.134-0.673 0.238s-0.465 0.17-0.548 0.197c0.012 0.020 0.023 0.051 0.033 0.093 0.079 0.333 0.121 1.131 0.127 2.393 0.444-0.083 0.912-0.205 1.405-0.367 0.5-0.163 0.806-0.259 0.92-0.286 0.269-0.064 0.417-0.039 0.444 0.074 0.052 0.22-0.213 0.477-0.794 0.772-0.574 0.293-1.225 0.526-1.955 0.699zM10.36 18.397c-0.057-0.241-0.149-0.458-0.277-0.652-0.13-0.201-0.281-0.334-0.453-0.397-0.457 0.251-0.789 0.729-0.996 1.437-0.202 0.699-0.238 1.32-0.11 1.866s0.343 0.853 0.644 0.924c0.486-0.22 0.836-0.67 1.050-1.349 0.219-0.688 0.266-1.297 0.141-1.828zM7.589 19.155c0.118-0.611 0.333-1.141 0.646-1.589 0.318-0.457 0.686-0.735 1.104-0.834 0.425-0.101 0.821-0.004 1.19 0.29 0.367 0.287 0.611 0.689 0.733 1.206 0.12 0.51 0.12 1.063-0.001 1.661-0.123 0.59-0.362 1.114-0.717 1.573-0.35 0.45-0.769 0.732-1.258 0.848-0.361 0.086-0.701-0.009-1.021-0.285s-0.539-0.669-0.659-1.179c-0.122-0.517-0.128-1.080-0.017-1.69zM15.173 17.255c-0.057-0.241-0.149-0.458-0.277-0.652-0.13-0.201-0.28-0.334-0.453-0.397-0.457 0.251-0.789 0.729-0.996 1.437-0.202 0.699-0.238 1.32-0.11 1.866s0.343 0.853 0.644 0.924c0.486-0.22 0.836-0.67 1.050-1.349 0.219-0.688 0.266-1.297 0.141-1.828zM12.402 18.013c0.118-0.611 0.333-1.141 0.646-1.589 0.318-0.457 0.687-0.735 1.104-0.834 0.425-0.101 0.821-0.004 1.19 0.29 0.367 0.287 0.611 0.689 0.733 1.206 0.12 0.51 0.12 1.064-0.001 1.661-0.123 0.59-0.362 1.114-0.717 1.573-0.35 0.45-0.769 0.732-1.258 0.848-0.361 0.086-0.701-0.009-1.021-0.285s-0.539-0.669-0.659-1.179c-0.122-0.517-0.128-1.080-0.017-1.69zM20.196 11.014c0.113-0.027 0.276 0.047 0.489 0.22 0.218 0.165 0.349 0.34 0.393 0.524s0.079 0.729 0.105 1.635c0.025 0.899 0.029 1.837 0.013 2.813-0.022 2.189-0.115 3.303-0.277 3.342-0.099 0.023-0.223-0.011-0.372-0.102-0.143-0.101-0.226-0.197-0.248-0.289s-0.040-0.282-0.056-0.57c-0.527 0.873-1.049 1.371-1.566 1.493-0.311 0.074-0.628-0.001-0.95-0.223-0.315-0.225-0.508-0.489-0.58-0.794-0.104-0.439-0.109-0.987-0.018-1.645 0.097-0.666 0.31-1.3 0.639-1.902s0.745-0.962 1.248-1.081c0.503-0.119 0.924 0.099 1.264 0.654 0.007-1.587-0.074-2.821-0.244-3.7-0.050-0.213 0.003-0.337 0.159-0.374zM20.258 16.508c-0.090-0.382-0.233-0.689-0.43-0.919-0.189-0.232-0.376-0.326-0.56-0.282-0.305 0.072-0.572 0.334-0.802 0.785s-0.383 0.944-0.459 1.478c-0.071 0.525-0.064 0.965 0.019 1.319 0.030 0.128 0.1 0.219 0.211 0.275s0.229 0.069 0.357 0.039c0.276-0.066 0.601-0.352 0.975-0.86 0.381-0.509 0.614-1.058 0.7-1.647l0.002-0.135-0.013-0.053zM27.037 15.864c0.137 0.581-0.010 1.132-0.44 1.653-0.432 0.514-0.988 0.852-1.668 1.013-0.673 0.16-1.269 0.118-1.79-0.125-0.523-0.25-0.82-0.531-0.894-0.842-0.050-0.212-0.011-0.334 0.116-0.364 0.113-0.027 0.376 0.090 0.789 0.351 0.156 0.090 0.352 0.163 0.59 0.219 0.245 0.054 0.487 0.053 0.728-0.004 0.496-0.118 0.905-0.349 1.227-0.695 0.329-0.347 0.459-0.67 0.389-0.967-0.045-0.191-0.23-0.405-0.555-0.642s-0.674-0.45-1.048-0.638c-0.368-0.197-0.715-0.417-1.042-0.661s-0.511-0.455-0.553-0.632c-0.042-0.177-0.051-0.373-0.027-0.588s0.068-0.379 0.131-0.491c0.204-0.37 0.567-0.752 1.087-1.144 0.528-0.394 0.99-0.639 1.386-0.733 0.205-0.049 0.395-0.023 0.568 0.078s0.278 0.226 0.313 0.375c0.017 0.071-0.044 0.145-0.183 0.223s-0.352 0.188-0.64 0.331c-0.282 0.134-0.529 0.275-0.741 0.423-0.741 0.505-1.077 0.902-1.008 1.193 0.037 0.156 0.554 0.493 1.551 1.012 0.384 0.201 0.747 0.455 1.088 0.763 0.347 0.299 0.556 0.597 0.626 0.895zM29.475 16.396c0.032 0.135 0.125 0.183 0.281 0.146 0.269-0.064 0.577-0.215 0.924-0.455 0.353-0.248 0.55-0.377 0.593-0.387 0.127-0.030 0.207 0.022 0.239 0.156 0.048 0.205-0.108 0.493-0.469 0.863-0.354 0.368-0.705 0.594-1.052 0.676-0.34 0.081-0.645 0.056-0.915-0.075-0.272-0.137-0.431-0.305-0.478-0.504s-0.064-0.46-0.050-0.785c0.011-0.332 0.036-0.768 0.073-1.308 0.043-0.549 0.071-1 0.084-1.355-0.314 0.157-0.528 0.249-0.642 0.276s-0.24-0.003-0.38-0.089c-0.135-0.095-0.214-0.196-0.239-0.302-0.040-0.17 0.382-0.442 1.265-0.816-0.011-0.618-0.070-1.154-0.177-1.607-0.050-0.213-0.004-0.335 0.137-0.369 0.12-0.029 0.287 0.014 0.501 0.128 0.212 0.107 0.341 0.256 0.386 0.447s0.064 0.542 0.057 1.052c0.395-0.131 0.713-0.225 0.954-0.282 0.425-0.101 0.659-0.059 0.702 0.125 0.025 0.106-0.071 0.223-0.288 0.349-0.21 0.125-0.665 0.349-1.367 0.672-0.017 0.595-0.053 1.28-0.109 2.057-0.058 0.769-0.069 1.232-0.032 1.387zM34.226 10.826c0.319-0.076 0.651 0.018 0.997 0.28 0.344 0.255 0.547 0.513 0.609 0.775 0.060 0.255 0.033 0.538-0.080 0.849 0.11 0.086 0.174 0.168 0.193 0.246 0.047 0.198 0.081 0.549 0.102 1.053 0.029 0.502 0.050 0.83 0.064 0.983 0.021 0.152 0.035 0.276 0.043 0.371 0.006 0.088 0.008 0.178 0.007 0.268 0.013 0.184-0.029 0.287-0.129 0.311-0.127 0.030-0.26-0.054-0.396-0.254-0.131-0.208-0.246-0.488-0.343-0.838-0.441 0.95-0.931 1.489-1.469 1.616-0.326 0.077-0.68 0.016-1.064-0.185-0.378-0.209-0.603-0.463-0.673-0.76-0.1-0.425-0.068-0.986 0.097-1.683 0.163-0.704 0.435-1.36 0.815-1.966s0.79-0.962 1.229-1.066zM35.156 12.58c-0.155-0.659-0.364-0.957-0.626-0.895-0.276 0.066-0.551 0.34-0.826 0.824-0.276 0.477-0.483 0.994-0.621 1.55s-0.173 0.98-0.104 1.27c0.028 0.12 0.101 0.208 0.219 0.262 0.116 0.047 0.241 0.055 0.376 0.023 0.333-0.079 0.655-0.391 0.968-0.937 0.311-0.552 0.472-1.17 0.483-1.853-0.004-0.111 0.041-0.189 0.135-0.234l-0.002-0.011z"></path>
<path fill="#bbf330" style="fill: var(--color3, #bbf330)" d="M32.978 19.975c-0.304 0.075-0.543 0.306-0.642 0.603-1.901 5.652-7.227 9.717-13.492 9.717-3.8 0-7.254-1.495-9.808-3.933-0.227-0.216-0.546-0.309-0.85-0.234-0.639 0.159-0.881 0.932-0.408 1.39 2.867 2.776 6.768 4.483 11.067 4.483 7.060 0 13.048-4.605 15.144-10.986 0.206-0.626-0.371-1.198-1.010-1.040zM4.171 14.148c0.346-0.086 0.602-0.374 0.666-0.725 1.209-6.669 7.024-11.718 14.007-11.718 4.541 0 8.588 2.135 11.196 5.463 0.22 0.281 0.582 0.416 0.928 0.33 0.584-0.145 0.848-0.823 0.48-1.298-2.916-3.772-7.477-6.2-12.603-6.2-7.861 0-14.394 5.71-15.703 13.224-0.103 0.593 0.447 1.070 1.031 0.925z"></path>
<path fill="#bbf330" style="fill: var(--color3, #bbf330); stroke: var(--color3, #bbf330)" stroke="#bbf330" stroke-linejoin="round" stroke-linecap="butt" stroke-miterlimit="4" stroke-width="0.6275" d="M42.816 5.331c-3.768 7.241-5.422 2.465-10.725 5.271 0.53-8.406 6.148-3.291 10.725-5.271z"></path>
</symbol>

<symbol id="icon-gg_menu" viewBox="0 0 32 32">
<path fill="#7eb101" style="fill: var(--color1, #7eb101)" d="M2.666 8c0-0.354 0.14-0.693 0.391-0.943s0.589-0.391 0.943-0.391h24c0.354 0 0.693 0.14 0.943 0.391s0.39 0.589 0.39 0.943c0 0.354-0.14 0.693-0.39 0.943s-0.589 0.391-0.943 0.391h-24c-0.354 0-0.693-0.14-0.943-0.391s-0.391-0.589-0.391-0.943zM2.666 16.043c0-0.354 0.14-0.693 0.391-0.943s0.589-0.39 0.943-0.39h24c0.354 0 0.693 0.14 0.943 0.39s0.39 0.589 0.39 0.943c0 0.354-0.14 0.693-0.39 0.943s-0.589 0.39-0.943 0.39h-24c-0.354 0-0.693-0.14-0.943-0.39s-0.391-0.589-0.391-0.943zM4 22.752c-0.354 0-0.693 0.141-0.943 0.39s-0.391 0.589-0.391 0.943 0.14 0.693 0.391 0.943c0.25 0.25 0.589 0.39 0.943 0.39h24c0.354 0 0.693-0.14 0.943-0.39s0.39-0.589 0.39-0.943c0-0.354-0.14-0.693-0.39-0.943s-0.589-0.39-0.943-0.39h-24z"></path>
</symbol>
</defs>
</svg>
