<svg width="1945.0000000000002" height="792" xmlns="http://www.w3.org/2000/svg" fill="none">
 <g>
  <title>Layer 1</title>
  <g id="svg_5">
   <g id="svg_9">
    <path d="m266.66507,88.83073c462.5,-286.5 1016,312.5 1280,-165.5l0,856.5l-1280,0l0,-691z" fill="#FFE550" id="svg_1"/>
    <path fill="#FFE550" stroke="null" opacity="undefined" d="m263.3355,780.25405c-196.70772,-16.00004 -258.6688,-164.4745 -258.6688,-369.99993c0,-205.52543 305.295,-418.66885 602.00305,-400.00219c296.70805,18.66665 566.00155,166.4756 566.00155,372.00103c0,205.52543 -712.62808,414.00114 -909.33581,398.0011l0.00001,-0.00001z" id="svg_2"/>
    <rect fill="#ffffff" x="1312.06146" y="-75.05018" width="418.00148" height="164.00182" id="svg_4" stroke="null"/>
    <path fill="#ffe550" opacity="undefined" d="m1536.61779,780.83889c-258.67088,15.23344 -381.56262,-174.33104 -381.56262,-367.88964c0,-193.5586 176.59556,-357.36044 341.00797,-350.34107c164.41241,7.01937 395.00966,176.78338 395.00966,370.34198c0,193.5586 -95.78413,332.65529 -354.45501,347.88873z" id="svg_8" stroke="null"/>
   </g>
   <path fill="#fff" stroke="#000" opacity="undefined" d="m1456.81971,109.49303c-383.98831,-20.53459 -436.00465,-71.15546 -436.00465,-159.00171c0,-87.84625 195.1181,-159.00171 436.00465,-159.00171c240.88655,0 434.93416,-16.31464 436.00465,159.00171c1.07049,175.31635 -52.01634,179.5363 -436.00465,159.00171z" id="svg_3" transform="rotate(-6.06342, 1456.83, -45.467)" stroke-width="0"/>
   <path fill="#ffe550" stroke="#000" stroke-width="0" opacity="undefined" d="m1657.81412,210.3928c-163.46962,-52 -70.66667,-16.0442 -202.66668,-58.66667c-132,-42.62247 53.86372,-34 147.33334,-56.66667c93.46962,-22.66667 107.33334,38.0442 129.33334,58.66667c22,20.62247 89.46961,108.66667 -74.00001,56.66667l0.00001,0z" id="svg_6"/>
   <path fill="#ffe550" stroke="#000" stroke-width="0" opacity="undefined" d="m1594.58134,668.51837c-241.47734,-206.00042 16.34607,-336.77193 -59.25934,-420.33383c-75.60541,-83.5619 62.28326,-165.66704 164.59273,-179.00036c102.30948,-13.33333 218.52772,114.77183 236.59277,209.66705c18.06506,94.89522 -100.44882,595.66757 -341.92617,389.66715l0.00001,-0.00001z" id="svg_10"/>
  </g>
 </g>

</svg>