<svg width="1854" height="943" xmlns="http://www.w3.org/2000/svg" fill="none">
 <g>
  <title>Layer 1</title>
  <g id="svg_16">
   <path id="svg_1" fill="#FFE550" d="m239.99749,179.21439c462.5,-286.5 1016,312.5 1280,-165.5l0,856.5l-1280,0l0,-691z"/>
   <path fill="#FFE550" opacity="undefined" d="m335.62507,893.47803c-219.68233,0 -335.62507,-146.90394 -335.62507,-360.10991c0,-213.20597 303.94276,-449.90284 397.62502,-385.90281c93.68227,64.00003 -253.1729,-11.78974 397.62502,385.90281c650.79792,397.69254 -239.94265,360.10991 -459.62498,360.10991l0.00001,0z" id="svg_2" stroke="null"/>
   <ellipse ry="21.00006" rx="47.00013" id="svg_3" cy="470.46705" cx="431.00113" fill="#FFE550"/>
   <ellipse stroke="null" ry="5.00001" rx="32.00009" id="svg_5" cy="384.46681" cx="1494.00408" fill="#FFE550"/>
   <path fill="#FFE550" opacity="undefined" d="m1441.6625,894.96223c-325.02768,4.11178 -277.99973,-255.41035 -101.99984,-426.61664c175.99988,-171.20629 136.97235,-399.07296 171.99988,-451.28732c35.02753,-52.21436 193.99989,327.36658 199.9999,451.28732c6,123.92073 55.02775,422.50486 -269.99994,426.61664z" id="svg_11" stroke="null"/>
   <path fill="#FFE550" stroke="null" opacity="undefined" d="m931.9985,907.96514c-339.2267,0 -706.00038,-7.03315 -706.00038,-33.00002c0,-25.96686 366.77368,-61.00003 706.00038,-61.00003c339.2267,0 640.00035,29.03316 640.00035,55.00003c0,25.96686 -300.77364,39.00002 -640.00035,39.00002z" id="svg_14"/>
  </g>
  <path fill="#FFE550" opacity="undefined" d="m1516.20958,886.73239c-134.07034,0 -148.0004,-218.83076 -60.00016,-513.7437c88.00024,-294.91295 -0.73665,-375.59201 109.33363,-372.92533c110.07028,2.66667 288.00077,191.34602 288.00077,399.59207c0,208.24605 -203.2639,487.07697 -337.33424,487.07697l0,-0.00001z" id="svg_17" stroke="null"/>
  <path stroke="null" fill="#FFE550" opacity="undefined" d="m920.92666,942.7325c-447.59277,0 -784.63718,-58.2985 -796.71885,-122.667c-12.08167,-64.3685 349.12608,-120.00032 796.71885,-120.00032c447.59277,0 934.36308,-148.03515 797.13606,47.0002c-137.22702,195.03535 -349.54329,195.66711 -797.13606,195.66711l0,0.00001z" id="svg_19"/>
 </g>

</svg>