<svg width="1280" height="5000" xmlns="http://www.w3.org/2000/svg" fill="none">

 <g>
  <title>Layer 1</title>
  <path id="svg_1" fill="#FFE550" d="m0,166c462.5,-286.5 1020.00007,312.5 1280,-165.5l0,856.5l-1280,0l0,-691z"/>
  <path d="m527.99799,1088.03296c-4.00006,0 -5.57672,0.07788 -4.00006,16.00037c2.00983,20.29712 12.62158,35.49609 32.00055,60.00098c24.81232,31.37524 34.98761,45.48608 52.00092,56.00098c7.60858,4.70239 8.21411,9.83813 16.00024,8.00012c8.7052,-2.05493 12.00024,-4 20.00037,-8.00012c8.00012,-4 16.00031,-4 24.00043,-8.00012c16.00024,-8.00012 32.15991,-15.69617 40.00067,-20.00037c20.44611,-11.22388 40.26471,-23.51099 48.00085,-28.00049c12.47412,-7.23901 12.00024,-12.00024 12.00024,-16.00024l0,-4.00012l-8.00018,-8.00012" id="svg_2" fill="#FFE550"/>
  <path d="m720.00134,1120.03357c-16.00031,0 -20.00037,0 -36.00061,0c-16.00031,0 -24.06805,3.61353 -48.00085,8.00012c-20.06226,3.67712 -24.00043,8.00012 -24.00043,8.00012l0,0l0,4.00012" id="svg_3" fill="#FFE550"/>
  <path d="m64.01122,904.02979c0,0 -2.50825,9.11023 28.46238,18.73533c6.92524,2.1522 49.211,30.55379 135.1963,65.57379c98.9765,40.31096 141.25588,56.16025 213.46783,65.57379c28.32388,3.69221 57.68617,0.75871 85.38714,9.36766c15.48534,4.81255 21.34679,9.36766 21.34679,9.36766c7.11561,9.36766 7.30596,16.58327 14.23119,18.73547c15.48532,4.81255 145.01648,-108.5931 42.69358,37.47066c35.06011,29.20933 72.13729,63.5864 149.42748,131.14758c93.7281,81.92993 136.08945,119.67574 213.46786,177.98605c36.00877,27.13531 71.15595,65.57379 120.96511,121.77992c49.80916,56.20613 74.37467,88.56479 135.19633,159.25072c37.71983,43.83736 89.95974,126.54501 149.42748,177.98605c47.9443,41.47289 64.04032,56.20599 92.50264,74.94131l7.11569,18.73533l7.11558,9.36781l0,0" id="svg_4" fill="#FFE550"/>
  <path transform="rotate(-3.64058 678.733 1188.95)" fill-opacity="0" stroke="null" d="m-18.82291,747.15965c35.77205,18.79987 159.55628,86.24166 286.17692,169.19655c291.84686,191.20173 543.5777,410.05395 715.44258,507.59022c224.08442,127.17179 393.49334,206.79572 393.49334,206.79572l0,0" id="svg_5" fill="#ffe550"/>
  <rect id="svg_6" height="928.01621" width="1756.03068" y="780.02761" x="-248.01558" fill="#FFE550"/>
  <rect id="svg_7" height="1176.02056" width="2748.04804" y="1490.0479" x="-512.0202" fill="#FFE550"/>
  <rect id="svg_8" height="2636.04608" width="2392.04181" y="2468.08684" x="-72.01251" opacity="NaN" fill="#FFE550"/>
 </g>
</svg>